<svg width="1694" height="414" viewBox="0 0 1694 414" fill="none" xmlns="http://www.w3.org/2000/svg">
<path d="M691.713 378.6C661.5 378.6 634.806 371.413 611.633 357.04C588.46 342.667 570.42 322.72 557.513 297.2C544.606 271.387 538.153 241.32 538.153 207C538.153 172.68 544.606 142.76 557.513 117.24C570.42 91.4266 588.313 71.3333 611.193 56.96C634.367 42.5867 661.207 35.4 691.713 35.4C722.22 35.4 748.913 42.5867 771.793 56.96C794.967 71.3333 812.86 91.4266 825.473 117.24C838.38 143.053 844.833 172.973 844.833 207C844.833 241.027 838.38 270.947 825.473 296.76C812.567 322.573 794.673 342.667 771.793 357.04C748.913 371.413 722.22 378.6 691.713 378.6ZM809.633 413.8L752.433 347.36L781.913 323.16L839.113 388.28L809.633 413.8ZM691.713 339C713.127 339 731.9 333.573 748.033 322.72C764.46 311.573 777.22 296.173 786.313 276.52C795.7 256.573 800.393 233.4 800.393 207C800.393 180.6 795.7 157.573 786.313 137.92C777.22 117.973 764.46 102.573 748.033 91.72C731.9 80.5733 713.127 75 691.713 75C670.3 75 651.38 80.5733 634.953 91.72C618.82 102.867 606.207 118.413 597.113 138.36C588.02 158.013 583.473 180.893 583.473 207C583.473 233.107 588.02 256.133 597.113 276.08C606.207 296.027 618.82 311.573 634.953 322.72C651.38 333.573 670.3 339 691.713 339ZM972.519 378.6C953.452 378.6 936.732 374.493 922.359 366.28C907.986 358.067 896.839 346.627 888.919 331.96C880.999 317 877.039 299.4 877.039 279.16V138.8H917.079V280.04C917.079 299.693 922.212 315.24 932.479 326.68C942.746 337.827 956.092 343.4 972.519 343.4C989.239 343.4 1002.73 337.68 1013 326.24C1023.27 314.8 1028.4 299.4 1028.4 280.04V138.8H1068.44V279.16C1068.44 299.693 1064.33 317.44 1056.12 332.4C1048.2 347.067 1037.05 358.507 1022.68 366.72C1008.31 374.64 991.586 378.6 972.519 378.6ZM1203.86 378.6C1182.45 378.6 1163.38 373.467 1146.66 363.2C1129.94 352.64 1116.89 338.267 1107.5 320.08C1098.11 301.6 1093.42 280.48 1093.42 256.72C1093.42 232.373 1098.11 210.813 1107.5 192.04C1116.89 173.267 1129.94 158.6 1146.66 148.04C1163.38 137.48 1182.45 132.2 1203.86 132.2C1225.27 132.2 1244.19 137.48 1260.62 148.04C1277.05 158.6 1289.95 173.267 1299.34 192.04C1308.73 210.813 1313.42 232.373 1313.42 256.72C1313.42 280.48 1308.73 301.6 1299.34 320.08C1289.95 338.267 1277.05 352.64 1260.62 363.2C1244.19 373.467 1225.27 378.6 1203.86 378.6ZM1203.86 342.96C1217.35 342.96 1229.09 339.293 1239.06 331.96C1249.33 324.627 1257.39 314.507 1263.26 301.6C1269.13 288.4 1272.06 273.293 1272.06 256.28C1272.06 238.973 1269.13 223.72 1263.26 210.52C1257.39 197.027 1249.33 186.613 1239.06 179.28C1229.09 171.653 1217.35 167.84 1203.86 167.84C1190.37 167.84 1178.34 171.653 1167.78 179.28C1157.51 186.613 1149.45 197.027 1143.58 210.52C1137.71 223.72 1134.78 238.973 1134.78 256.28C1134.78 273.293 1137.71 288.4 1143.58 301.6C1149.45 314.507 1157.51 324.627 1167.78 331.96C1178.34 339.293 1190.37 342.96 1203.86 342.96ZM1421.1 372C1407.31 372 1396.02 369.653 1387.22 364.96C1378.71 360.267 1372.55 352.933 1368.74 342.96C1364.93 332.693 1363.02 319.493 1363.02 303.36V64H1403.5V298.08C1403.5 308.053 1404.23 315.827 1405.7 321.4C1407.17 326.973 1409.81 330.933 1413.62 333.28C1417.73 335.333 1423.15 336.36 1429.9 336.36H1460.26V372H1421.1ZM1323.42 172.24V138.8H1453.66V172.24H1323.42ZM1572.86 378.6C1549.98 378.6 1530.18 373.613 1513.46 363.64C1496.74 353.373 1483.68 339.147 1474.3 320.96C1465.2 302.48 1460.66 280.92 1460.66 256.28C1460.66 231.64 1465.2 210.08 1474.3 191.6C1483.68 172.827 1496.59 158.307 1513.02 148.04C1529.74 137.48 1548.95 132.2 1570.66 132.2C1593.83 132.2 1613.34 137.92 1629.18 149.36C1645.31 160.507 1657.34 176.2 1665.26 196.44C1673.18 216.68 1676.55 240.44 1675.38 267.72H1491.02V235.6H1635.34C1634.46 213.6 1628 196.293 1615.98 183.68C1603.95 171.067 1588.99 164.76 1571.1 164.76C1560.54 164.76 1551.3 166.667 1543.38 170.48C1535.75 174.293 1529.15 179.28 1523.58 185.44C1518.3 191.6 1513.9 198.347 1510.38 205.68C1507.15 212.72 1504.8 219.907 1503.34 227.24C1501.87 234.28 1501.14 240.733 1501.14 246.6V262C1501.14 278.72 1504.07 293.387 1509.94 306C1516.1 318.613 1524.6 328.44 1535.46 335.48C1546.31 342.227 1558.92 345.6 1573.3 345.6C1583.56 345.6 1592.95 343.547 1601.46 339.44C1609.96 335.333 1617.15 329.613 1623.02 322.28C1629.18 314.653 1633.28 306.147 1635.34 296.76H1674.06C1670.83 313.187 1664.52 327.56 1655.14 339.88C1645.75 352.2 1634.02 361.733 1619.94 368.48C1605.86 375.227 1590.16 378.6 1572.86 378.6Z" fill="url(#paint0_linear_33_49)"/>
<path d="M268.535 363.57C259.7 372.403 252.071 374.012 245.646 368.389C238.419 362.766 239.623 355.138 249.26 345.501C272.55 322.212 289.015 300.528 298.652 280.45C308.289 260.371 313.108 239.492 313.108 217.808C313.108 204.958 309.894 194.92 303.471 187.692C297.043 181.269 289.815 175.246 281.786 169.623C273.755 164 266.527 157.576 260.102 150.348C253.677 142.316 250.465 131.074 250.465 116.618C250.465 100.558 255.685 87.3066 266.125 76.865C277.369 65.6229 291.424 60 308.289 60C328.364 60 344.024 67.2279 355.27 81.6836C367.317 96.1394 373.34 115.814 373.34 140.711C373.34 183.274 363.299 224.232 343.224 263.585C323.95 303.738 299.052 337.068 268.535 363.57Z" fill="url(#paint1_linear_33_49)"/>
<path d="M104.805 68.0981C113.639 59.2653 121.269 57.6566 127.693 63.2795C134.921 68.9025 133.717 76.5306 124.079 86.1678C100.79 109.456 84.325 131.14 74.6878 151.218C65.0507 171.297 60.2321 192.176 60.2321 213.86C60.2321 226.711 63.4457 236.748 69.8693 243.976C76.2966 250.399 83.5244 256.423 91.554 262.046C99.5851 267.669 106.813 274.092 113.238 281.32C119.663 289.352 122.875 300.594 122.875 315.05C122.875 331.111 117.655 344.362 107.214 354.803C95.9712 366.045 81.9157 371.668 65.0507 371.668C44.9758 371.668 29.3154 364.44 18.0695 349.985C6.02304 335.529 -0.000169397 315.854 -0.000169397 290.957C-0.000169397 248.394 10.0411 207.436 30.116 168.083C49.3903 127.93 74.2876 94.6003 104.805 68.0981Z" fill="url(#paint2_linear_33_49)"/>
<defs>
<linearGradient id="paint0_linear_33_49" x1="574.493" y1="109.652" x2="1629.92" y2="499.77" gradientUnits="userSpaceOnUse">
<stop offset="0.394231" stop-color="#202020"/>
<stop offset="1" stop-color="#0F0F0F"/>
</linearGradient>
<linearGradient id="paint1_linear_33_49" x1="307.17" y1="60" x2="307.17" y2="371.668" gradientUnits="userSpaceOnUse">
<stop stop-color="#222222"/>
<stop offset="1" stop-color="#161616"/>
</linearGradient>
<linearGradient id="paint2_linear_33_49" x1="66.1698" y1="371.668" x2="66.1698" y2="60" gradientUnits="userSpaceOnUse">
<stop stop-color="#222222"/>
<stop offset="1" stop-color="#161616"/>
</linearGradient>
</defs>
</svg>
